<?xml version="1.0" encoding="utf-8"?>
<!-- Generator: Adobe Illustrator 24.0.2, SVG Export Plug-In . SVG Version: 6.00 Build 0)  -->
<svg version="1.1" id="Layer_1" xmlns="http://www.w3.org/2000/svg" xmlns:xlink="http://www.w3.org/1999/xlink" x="0px" y="0px"
	 viewBox="0 0 2000 2000" style="enable-background:new 0 0 2000 2000;" xml:space="preserve">
<style type="text/css">
	.st0{fill:#00BCE8;}
</style>
<g>
	<g>
		<g>
			<path d="M620.24,1130.96c-3.57-2.35-7.69-4.33-12.24-5.9c-4.47-1.54-9.4-2.82-14.94-3.81c-4.54-0.85-8.63-1.9-12.17-3.11
				c-3.44-1.18-6.36-2.59-8.7-4.2c-4.26-2.92-6.37-6.29-6.45-10.24c0-2.17,0.57-4.19,1.75-6.18c1.23-2.08,3-4.02,5.2-5.71
				c2.28-1.67,5.11-3.03,8.42-4.06c3.33-1.03,7-1.56,10.89-1.56c5.19,0,9.92,1.06,14.06,3.14c4.4,2.23,8.6,4.65,12.54,7.24
				c1.01,0.64,2.09,0.96,3.22,0.96l1.02-0.09c1.55-0.28,2.84-1.16,3.72-2.57c0.82-1.31,1.12-2.79,0.87-4.28
				c-0.27-1.61-1.15-2.93-2.58-3.82l-6.39-3.99c-2.35-1.48-4.91-2.83-7.62-4.04c-2.75-1.22-5.71-2.22-8.81-2.99
				c-3.15-0.77-6.53-1.17-10.02-1.17c-5.1,0-9.92,0.7-14.33,2.09c-4.42,1.39-8.4,3.35-11.83,5.84c-3.47,2.53-6.31,5.6-8.43,9.15
				c-2.17,3.65-3.28,7.7-3.28,12.04c0,4.28,1.12,8.19,3.33,11.61c2.13,3.3,4.94,6.11,8.29,8.31c3.3,2.27,7.14,4.14,11.43,5.57
				c4.17,1.39,8.75,2.55,13.87,3.44c4.82,0.94,9.21,2.09,13.07,3.41c3.76,1.28,6.99,2.81,9.57,4.49c2.5,1.73,4.36,3.57,5.52,5.48
				c1.12,1.84,1.66,3.92,1.66,6.37c0,5.08-2.51,9.35-7.67,13.05c-2.57,1.86-5.68,3.38-9.24,4.51c-3.56,1.13-7.49,1.7-11.67,1.7
				c-3.09,0-6.17-0.37-9.15-1.09c-3.04-0.74-5.96-1.71-8.68-2.91c-2.74-1.2-5.36-2.57-7.78-4.06c-2.4-1.47-4.5-2.97-6.22-4.42
				c-1.08-0.93-2.39-1.42-4.12-1.42c-0.02,0-0.03,0-0.05,0c-1.65,0.1-3.07,0.88-4.15,2.33c-0.83,1.17-1.21,2.51-1.13,3.98
				c0.09,1.58,0.78,2.97,2.1,4.1c2.19,1.7,4.68,3.44,7.47,5.23c2.84,1.82,5.95,3.48,9.25,4.93c3.32,1.46,6.89,2.68,10.6,3.63
				c3.78,0.97,7.77,1.47,11.87,1.47c5.39,0,10.51-0.75,15.21-2.23c4.73-1.49,8.95-3.61,12.57-6.29c3.65-2.71,6.67-6,8.97-9.77
				c2.38-3.9,3.59-8.18,3.59-12.72c0-4.55-1.16-8.72-3.46-12.38C626.95,1136.43,623.94,1133.4,620.24,1130.96z"/>
			<path d="M712.23,1076.04l-53.01,0.01c-1.58,0.16-2.92,0.78-3.98,1.84c-1.12,1.12-1.71,2.58-1.71,4.24v95.02
				c0,1.66,0.61,3.15,1.77,4.31c1.16,1.17,2.66,1.78,4.32,1.78c1.75,0,3.3-0.61,4.46-1.78c1.16-1.16,1.78-2.65,1.78-4.31v-41.27
				h40.25c1.75,0,3.3-0.61,4.46-1.78c1.17-1.16,1.78-2.66,1.78-4.31c0-1.75-0.61-3.28-1.78-4.46c-1.17-1.16-2.71-1.78-4.46-1.78
				h-40.25v-35.17h46.37c1.66,0,3.15-0.61,4.31-1.78c1.17-1.16,1.78-2.71,1.78-4.46c0-1.65-0.61-3.15-1.78-4.31
				C715.38,1076.65,713.88,1076.04,712.23,1076.04z"/>
			<path d="M779.26,1106.79c-3.67,0-7.15,0.56-10.33,1.67c-3.12,1.09-6,2.55-8.56,4.33c-2.54,1.76-4.83,3.78-6.81,6.02
				c-0.44,0.5-0.87,1-1.29,1.51v-7.44c0-1.79-0.64-3.32-1.85-4.45c-1.16-1.07-2.57-1.64-4.1-1.64c-1.71,0-3.23,0.57-4.38,1.64
				c-1.21,1.12-1.85,2.66-1.85,4.45v64.27c0,1.79,0.64,3.33,1.84,4.44c1.15,1.08,2.67,1.65,4.39,1.65c1.53,0,2.94-0.57,4.1-1.64
				c1.21-1.13,1.85-2.66,1.85-4.45l0.16-31.68c0.47-1.41,1.39-3.67,2.75-6.77c1.32-3,3.15-6.06,5.42-9.05
				c2.35-2.99,5.1-5.58,8.18-7.71c2.84-1.97,6.36-2.96,10.47-2.96c1.65,0,3.15-0.61,4.31-1.78c1.17-1.16,1.78-2.66,1.78-4.31
				c0-1.79-0.64-3.32-1.85-4.45C782.35,1107.35,780.88,1106.79,779.26,1106.79z"/>
			<path d="M859.41,1106.64c-1.62,0-3.09,0.57-4.24,1.64c-1.21,1.12-1.85,2.66-1.85,4.45v3.63c-2.32-2.18-4.91-4.06-7.74-5.61
				c-4.98-2.72-10.52-4.1-16.47-4.1c-5.02,0-9.82,1.03-14.27,3.07c-4.42,2.03-8.32,4.82-11.59,8.31c-3.27,3.48-5.87,7.57-7.72,12.17
				c-1.87,4.61-2.81,9.58-2.81,14.75s0.94,10.13,2.81,14.75c1.86,4.6,4.46,8.69,7.73,12.17c3.28,3.49,7.18,6.28,11.59,8.3
				c4.45,2.04,9.25,3.08,14.27,3.08c5.96,0,11.51-1.41,16.49-4.19c2.83-1.58,5.41-3.47,7.72-5.66v3.76c0,1.66,0.62,3.15,1.77,4.31
				c1.16,1.17,2.66,1.78,4.32,1.78c1.65,0,3.15-0.61,4.31-1.78c1.17-1.16,1.78-2.66,1.78-4.31v-64.41c0-1.79-0.64-3.32-1.85-4.45
				C862.49,1107.21,861.03,1106.64,859.41,1106.64z M829.1,1171.05c-3.29,0-6.4-0.68-9.25-2.01c-2.9-1.37-5.51-3.24-7.76-5.57
				c-2.23-2.32-4.01-5.1-5.29-8.28c-1.28-3.17-1.93-6.62-1.93-10.25c0-3.63,0.65-7.08,1.93-10.25c1.28-3.18,3.06-5.99,5.31-8.37
				c2.23-2.37,4.84-4.26,7.74-5.62c2.84-1.33,5.95-2.01,9.25-2.01c3.3,0,6.43,0.68,9.33,2.02c2.94,1.36,5.53,3.25,7.71,5.6
				c2.21,2.39,3.97,5.21,5.25,8.39c1.28,3.18,1.93,6.62,1.93,10.25c0,3.63-0.65,7.07-1.93,10.25c-1.28,3.18-3.04,5.97-5.24,8.3
				c-2.19,2.32-4.79,4.19-7.72,5.54C835.53,1170.37,832.4,1171.05,829.1,1171.05z"/>
			<path d="M995.6,1116c-2.84-2.84-6.23-5.11-10.07-6.75c-3.85-1.64-7.99-2.46-12.31-2.46c-6,0-11.53,1.52-16.44,4.54
				c-3.66,2.24-6.74,5.06-9.21,8.41c-2.45-3.35-5.51-6.16-9.13-8.4c-4.86-3.01-10.37-4.54-16.38-4.54c-4.85,0-9.4,1.02-13.52,3.03
				c-2.12,1.03-4.09,2.26-5.88,3.67v-0.75c0-1.65-0.59-3.12-1.71-4.24c-0.78-0.78-2.18-1.7-4.38-1.7c-1.52,0-2.94,0.57-4.09,1.64
				c-1.21,1.12-1.85,2.61-1.85,4.31v65.68l0.12,0.38c0.79,2.53,2.58,4.1,5.39,4.45h0.87l1.66-0.15l0.27-0.27
				c0.35-0.14,0.71-0.35,1.08-0.66c1.71-1.06,2.65-2.78,2.65-4.87v-38.91c0-2.63,0.52-5.15,1.53-7.49c1.04-2.39,2.44-4.51,4.16-6.32
				c1.69-1.78,3.74-3.2,6.08-4.22c2.32-1.01,4.89-1.53,7.63-1.53c2.65,0,5.2,0.52,7.58,1.54c2.38,1.02,4.45,2.44,6.14,4.21
				c1.72,1.81,3.13,3.94,4.16,6.31c1.01,2.33,1.53,4.85,1.53,7.49v40.71l0.15,0.15v0.29l0.15,0.15v0.15l0.77,0.75l0.1,0.25
				l0.74,0.76c0.17,0.17,0.55,0.56,1.14,0.82c0.47,0.37,1.04,0.6,1.67,0.67l0.76,0.16h0.61c0.99,0,1.97-0.24,2.91-0.71
				c0.63-0.32,1.2-0.73,1.69-1.22c0.55-0.55,0.99-1.23,1.31-2.04l0.33-1.36v-39.52c0-2.64,0.52-5.15,1.53-7.49
				c1.04-2.37,2.45-4.49,4.21-6.29c1.75-1.79,3.83-3.21,6.18-4.24c2.32-1.01,4.84-1.53,7.49-1.53c2.64,0,5.16,0.52,7.48,1.53
				c2.35,1.03,4.43,2.45,6.18,4.24c1.76,1.81,3.18,3.93,4.21,6.29c1.03,2.36,1.59,4.91,1.68,7.49v38.91c0,1.53,0.57,2.95,1.64,4.09
				c1.12,1.21,2.61,1.85,4.31,1.85c1.79,0,3.33-0.64,4.45-1.85c1.07-1.16,1.64-2.57,1.64-4.1v-38.91c0-4.31-0.83-8.45-2.47-12.31
				C1000.72,1122.23,998.45,1118.84,995.6,1116z"/>
			<path d="M1094.7,1128.31c-2.02-4.29-4.7-8.1-7.96-11.31c-3.27-3.22-7.13-5.78-11.45-7.61c-4.33-1.83-9.01-2.75-13.91-2.75
				c-5.2,0-10.12,1.03-14.62,3.07c-4.45,2.02-8.41,4.77-11.78,8.19c-3.38,3.43-6.06,7.54-7.98,12.2c-1.92,4.67-2.89,9.7-2.89,14.98
				c0,5.18,0.97,10.15,2.89,14.77c1.91,4.61,4.6,8.68,7.98,12.12c3.37,3.42,7.33,6.18,11.78,8.19c4.49,2.04,9.42,3.07,14.62,3.07
				c6.55,0,12.61-1.59,17.99-4.72c5.35-3.12,9.74-7.38,13.13-12.79c0.8-1.45,1.01-3.04,0.6-4.62c-0.4-1.5-1.23-2.73-2.67-3.8
				c-0.97-0.61-2.03-0.91-3.15-0.91c-0.43,0-0.87,0.05-1.31,0.14c-1.67,0.35-3,1.35-3.81,2.81c-2.18,3.67-5.14,6.56-8.8,8.61
				c-3.67,2.05-7.71,3.09-11.99,3.09c-3.32,0-6.48-0.64-9.39-1.9c-2.94-1.27-5.6-3.03-7.9-5.25c-2.27-2.18-4.11-4.82-5.48-7.86
				c-1.01-2.24-1.7-4.65-2.06-7.2h55.73c1.58,0,3.02-0.52,4.16-1.5c1.26-1.08,1.93-2.57,1.93-4.3l-0.01-0.8
				C1097.95,1137.29,1096.72,1132.6,1094.7,1128.31z M1037.48,1136.81c0.61-1.92,1.41-3.74,2.4-5.42c1.5-2.56,3.35-4.79,5.5-6.63
				c2.15-1.84,4.62-3.31,7.34-4.36c2.69-1.04,5.61-1.57,8.68-1.57c2.96,0,5.81,0.53,8.45,1.57c2.68,1.06,5.13,2.52,7.28,4.36
				c2.14,1.84,3.99,4.09,5.49,6.68c0.98,1.7,1.75,3.49,2.32,5.36H1037.48z"/>
			<path d="M1211.63,1107.79c-0.75-0.38-1.56-0.57-2.39-0.57c-0.77,0-1.56,0.16-2.33,0.49c-1.53,0.64-2.69,1.76-3.36,3.28
				l-21.21,50.55l-14.11-33.59c-1.11-2.37-3.19-3.68-5.85-3.68c-2.57,0-4.6,1.31-5.74,3.78l-14.08,33.52l-21.28-50.38
				c-0.53-1.59-1.66-2.79-3.28-3.47c-0.78-0.33-1.58-0.49-2.38-0.49c-0.81,0-1.61,0.17-2.48,0.56c-1.31,0.65-2.33,1.74-2.97,3.17
				c-0.68,1.54-0.68,3.18-0.02,4.68l26.78,63.73c0.48,1.29,1.32,2.28,2.45,2.88c0.51,0.39,1.02,0.57,1.46,0.65
				c0.74,0.23,1.34,0.34,1.87,0.34c1.07,0,2.14-0.33,3.18-0.97c1.03-0.63,1.79-1.53,2.22-2.62l14.28-34.12l14.22,33.79l0.34,0.6
				c0.4,0.82,1,1.54,1.77,2.09c0.87,0.63,1.8,1.03,2.79,1.19l1.15,0.03c1.05,0,2.12-0.4,3.19-1.16c1.05-0.69,1.82-1.71,2.27-2.91
				l26.65-63.49c0.68-1.54,0.68-3.18,0-4.73C1214.08,1109.49,1212.97,1108.38,1211.63,1107.79z"/>
			<path d="M1295.06,1118.02c-3.28-3.48-7.18-6.28-11.59-8.31c-4.46-2.04-9.26-3.07-14.27-3.07c-5.02,0-9.82,1.03-14.27,3.07
				c-4.42,2.03-8.32,4.82-11.59,8.31c-3.26,3.47-5.86,7.56-7.73,12.17c-1.87,4.61-2.81,9.58-2.81,14.75s0.94,10.13,2.81,14.75
				c1.86,4.61,4.46,8.7,7.73,12.17c3.27,3.49,7.18,6.28,11.59,8.3c4.45,2.04,9.25,3.08,14.27,3.08c5.01,0,9.82-1.04,14.27-3.08
				c4.42-2.03,8.31-4.82,11.59-8.3c3.27-3.48,5.87-7.57,7.73-12.17c1.86-4.62,2.81-9.58,2.81-14.75s-0.94-10.13-2.81-14.75
				C1300.92,1125.59,1298.32,1121.5,1295.06,1118.02z M1269.19,1171.05c-3.29,0-6.4-0.68-9.25-2.01c-2.9-1.37-5.51-3.24-7.76-5.57
				c-2.23-2.32-4.01-5.1-5.29-8.28c-1.28-3.17-1.93-6.62-1.93-10.25c0-3.63,0.65-7.08,1.93-10.25c1.28-3.18,3.06-5.99,5.31-8.37
				c2.23-2.37,4.84-4.26,7.74-5.62c2.84-1.33,5.95-2.01,9.25-2.01c3.2,0,6.29,0.68,9.18,2.02c2.94,1.36,5.56,3.26,7.8,5.62
				c2.24,2.38,4.03,5.2,5.31,8.37c1.28,3.17,1.92,6.62,1.92,10.25c0,3.63-0.65,7.08-1.92,10.25c-1.28,3.17-3.06,5.96-5.29,8.28
				c-2.24,2.33-4.87,4.2-7.82,5.56C1275.48,1170.37,1272.39,1171.05,1269.19,1171.05z"/>
			<path d="M1363.48,1106.79c-3.67,0-7.15,0.56-10.33,1.67c-3.12,1.09-6,2.55-8.56,4.33c-2.54,1.76-4.83,3.78-6.81,6.02
				c-0.44,0.5-0.87,1-1.29,1.51v-7.44c0-1.79-0.64-3.32-1.85-4.45c-1.16-1.07-2.57-1.64-4.1-1.64c-1.71,0-3.23,0.57-4.38,1.64
				c-1.21,1.12-1.85,2.66-1.85,4.45v64.27c0,1.79,0.64,3.33,1.84,4.44c1.15,1.08,2.67,1.65,4.39,1.65c1.53,0,2.94-0.57,4.1-1.64
				c1.21-1.13,1.85-2.66,1.85-4.45l0.16-31.68c0.47-1.41,1.39-3.67,2.75-6.77c1.32-3,3.15-6.06,5.42-9.05
				c2.35-2.99,5.1-5.58,8.18-7.71c2.84-1.97,6.36-2.96,10.47-2.96c1.65,0,3.15-0.61,4.31-1.78c1.17-1.16,1.78-2.66,1.78-4.31
				c0-1.79-0.64-3.32-1.85-4.45C1366.57,1107.35,1365.1,1106.79,1363.48,1106.79z"/>
			<path d="M1421.19,1141.32l25.88-25.88c1.59-1.59,1.93-3.26,1.93-4.39c0-1.67-0.71-3.18-1.93-4.24c-1.59-1.59-3.22-1.92-4.31-1.92
				s-2.72,0.33-4.31,1.92l-37.83,37.7v-62.38c0-1.65-0.61-3.15-1.78-4.31c-1.16-1.17-2.71-1.78-4.46-1.78
				c-1.66,0-3.15,0.62-4.31,1.77c-1.17,1.16-1.78,2.66-1.78,4.32v95.02c0,1.66,0.62,3.15,1.78,4.31c1.16,1.17,2.66,1.78,4.32,1.78
				c1.75,0,3.3-0.61,4.46-1.78c1.17-1.16,1.78-2.66,1.78-4.31v-15.25l11.79-11.79l25.35,30.56c0.6,1,1.49,1.74,2.57,2.13
				c0.81,0.3,1.63,0.45,2.43,0.45c1.59,0,2.94-0.45,4.17-1.49c2.6-2.6,2.77-5.81,0.46-8.58L1421.19,1141.32z"/>
		</g>
		<g>
			<path class="st0" d="M551,1211.26h2.01l6.4,9.59l6.4-9.59h2.01v17.58h-1.98v-14.23l-6.4,9.41h-0.1l-6.4-9.39v14.21H551V1211.26z"
				/>
			<path class="st0" d="M584.86,1211.13h1.86l8.01,17.7h-2.13l-2.06-4.65h-9.56l-2.08,4.65h-2.04L584.86,1211.13z M589.76,1222.41
				l-3.99-8.96l-4.02,8.96H589.76z"/>
			<path class="st0" d="M603.77,1211.26h1.98v10.49l10.09-10.49h2.56l-7.53,7.68l7.86,9.89h-2.48l-6.75-8.51l-3.74,3.79v4.72h-1.98
				V1211.26z"/>
			<path class="st0" d="M627.56,1211.26h1.98v17.58h-1.98V1211.26z"/>
			<path class="st0" d="M640.23,1211.26h1.86l11.07,14.08v-14.08h1.93v17.58h-1.58l-11.35-14.41v14.41h-1.93V1211.26z"/>
			<path class="st0" d="M664.86,1220.1v-0.05c0-4.82,3.54-9.09,8.81-9.09c2.96,0,4.8,0.85,6.55,2.33l-1.28,1.51
				c-1.35-1.18-2.86-2.01-5.35-2.01c-3.89,0-6.68,3.29-6.68,7.21v0.05c0,4.19,2.69,7.31,6.96,7.31c2.01,0,3.86-0.78,5.07-1.76v-4.37
				h-5.35v-1.78h7.26v7c-1.63,1.46-4.09,2.69-7.06,2.69C668.27,1229.14,664.86,1225.12,664.86,1220.1z"/>
			<path class="st0" d="M702.69,1227.3l6.38-5.62c2.69-2.41,3.67-3.76,3.67-5.52c0-2.06-1.63-3.36-3.54-3.36
				c-2.01,0-3.31,1.06-4.72,3.01l-1.45-1.06c1.58-2.36,3.24-3.74,6.33-3.74c3.16,0,5.45,2.11,5.45,4.97v0.05
				c0,2.56-1.35,4.14-4.44,6.83l-4.7,4.17h9.32v1.81h-12.28V1227.3z"/>
			<path class="st0" d="M724.56,1211.26h6.1c5.52,0,9.34,3.79,9.34,8.74v0.05c0,4.94-3.82,8.79-9.34,8.79h-6.1V1211.26z
				 M730.66,1227c4.44,0,7.28-3.01,7.28-6.9v-0.05c0-3.89-2.84-6.95-7.28-6.95h-4.12V1227H730.66z"/>
			<path class="st0" d="M763.02,1211.26H765v17.58h-1.98V1211.26z"/>
			<path class="st0" d="M775.7,1211.26h1.86l11.07,14.08v-14.08h1.93v17.58h-1.58l-11.35-14.41v14.41h-1.93V1211.26z"/>
			<path class="st0" d="M813.4,1220.1v-0.05c0-4.97,3.71-9.09,8.89-9.09c3.19,0,5.1,1.13,6.85,2.78l-1.35,1.46
				c-1.48-1.4-3.14-2.41-5.52-2.41c-3.89,0-6.8,3.16-6.8,7.21v0.05c0,4.07,2.94,7.26,6.8,7.26c2.41,0,3.99-0.93,5.67-2.53l1.31,1.28
				c-1.83,1.86-3.84,3.09-7.03,3.09C817.14,1229.14,813.4,1225.14,813.4,1220.1z"/>
			<path class="st0" d="M838.27,1211.26h7.56c2.16,0,3.89,0.65,4.99,1.76c0.86,0.85,1.36,2.08,1.36,3.46v0.05
				c0,2.91-2.01,4.62-4.77,5.12l5.4,7.18h-2.44l-5.09-6.83h-5.02v6.83h-1.98V1211.26z M845.65,1220.22c2.63,0,4.52-1.36,4.52-3.62
				v-0.05c0-2.16-1.66-3.46-4.49-3.46h-5.42v7.13H845.65z"/>
			<path class="st0" d="M868.49,1211.13h1.86l8.01,17.7h-2.13l-2.06-4.65h-9.56l-2.08,4.65h-2.04L868.49,1211.13z M873.39,1222.41
				l-3.99-8.96l-4.02,8.96H873.39z"/>
			<path class="st0" d="M887.39,1211.26h12.63v1.83h-10.65v6.27h9.52v1.81h-9.52v7.66h-1.98V1211.26z"/>
			<path class="st0" d="M914.07,1213.09h-5.9v-1.83h13.81v1.83h-5.9v15.74h-2.01V1213.09z"/>
			<path class="st0" d="M929.72,1226.27l1.23-1.46c1.83,1.66,3.59,2.48,6.03,2.48c2.36,0,3.92-1.25,3.92-2.99v-0.05
				c0-1.63-0.88-2.56-4.57-3.34c-4.04-0.88-5.9-2.18-5.9-5.07v-0.05c0-2.76,2.44-4.8,5.77-4.8c2.56,0,4.39,0.73,6.18,2.16
				l-1.16,1.53c-1.63-1.33-3.26-1.91-5.07-1.91c-2.28,0-3.74,1.25-3.74,2.84v0.05c0,1.66,0.9,2.59,4.77,3.42
				c3.92,0.85,5.72,2.28,5.72,4.97v0.05c0,3.01-2.51,4.97-6,4.97C934.11,1229.09,931.83,1228.16,929.72,1226.27z"/>
			<path class="st0" d="M956.77,1213.09h-5.9v-1.83h13.81v1.83h-5.9v15.74h-2.01V1213.09z"/>
			<path class="st0" d="M973.68,1221.48v-10.22h1.98v10.09c0,3.79,2.01,5.93,5.37,5.93c3.24,0,5.3-1.96,5.3-5.8v-10.22h1.98v10.07
				c0,5.12-2.94,7.79-7.33,7.79C976.65,1229.11,973.68,1226.45,973.68,1221.48z"/>
			<path class="st0" d="M998.58,1211.26h6.1c5.52,0,9.34,3.79,9.34,8.74v0.05c0,4.94-3.82,8.79-9.34,8.79h-6.1V1211.26z
				 M1004.68,1227c4.44,0,7.28-3.01,7.28-6.9v-0.05c0-3.89-2.84-6.95-7.28-6.95h-4.12V1227H1004.68z"/>
			<path class="st0" d="M1023.96,1211.26h1.98v17.58h-1.98V1211.26z"/>
			<path class="st0" d="M1035.85,1220.1v-0.05c0-4.85,3.64-9.09,8.99-9.09c5.35,0,8.94,4.19,8.94,9.04v0.05
				c0,4.85-3.64,9.09-8.99,9.09C1039.44,1229.14,1035.85,1224.94,1035.85,1220.1z M1051.72,1220.1v-0.05c0-3.99-2.91-7.26-6.93-7.26
				c-4.02,0-6.88,3.21-6.88,7.21v0.05c0,3.99,2.91,7.26,6.93,7.26C1048.86,1227.3,1051.72,1224.09,1051.72,1220.1z"/>
			<path class="st0" d="M1075.46,1226.27l1.23-1.46c1.83,1.66,3.59,2.48,6.03,2.48c2.36,0,3.92-1.25,3.92-2.99v-0.05
				c0-1.63-0.88-2.56-4.57-3.34c-4.04-0.88-5.9-2.18-5.9-5.07v-0.05c0-2.76,2.44-4.8,5.77-4.8c2.56,0,4.39,0.73,6.18,2.16
				l-1.16,1.53c-1.63-1.33-3.26-1.91-5.07-1.91c-2.28,0-3.74,1.25-3.74,2.84v0.05c0,1.66,0.9,2.59,4.77,3.42
				c3.92,0.85,5.72,2.28,5.72,4.97v0.05c0,3.01-2.51,4.97-6,4.97C1079.86,1229.09,1077.58,1228.16,1075.46,1226.27z"/>
			<path class="st0" d="M1098.43,1211.26h1.98v17.58h-1.98V1211.26z"/>
			<path class="st0" d="M1111.1,1211.26h2.01l6.4,9.59l6.4-9.59h2.01v17.58h-1.98v-14.23l-6.4,9.41h-0.1l-6.4-9.39v14.21h-1.93
				V1211.26z"/>
			<path class="st0" d="M1138.47,1211.26h6.58c3.96,0,6.58,2.11,6.58,5.57v0.05c0,3.79-3.16,5.75-6.9,5.75h-4.27v6.2h-1.98V1211.26z
				 M1144.79,1220.82c2.91,0,4.82-1.56,4.82-3.87v-0.05c0-2.51-1.88-3.81-4.72-3.81h-4.44v7.73H1144.79z"/>
			<path class="st0" d="M1160.8,1211.26h1.98V1227h9.89v1.83h-11.88V1211.26z"/>
			<path class="st0" d="M1181.9,1211.26h12.71v1.81h-10.72v6h9.59v1.81h-9.59v6.15h10.85v1.81h-12.83V1211.26z"/>
			<path class="st0" d="M1204.28,1211.26h7.56c2.16,0,3.89,0.65,4.99,1.76c0.86,0.85,1.36,2.08,1.36,3.46v0.05
				c0,2.91-2.01,4.62-4.77,5.12l5.4,7.18h-2.44l-5.09-6.83h-5.02v6.83h-1.98V1211.26z M1211.67,1220.22c2.63,0,4.52-1.36,4.52-3.62
				v-0.05c0-2.16-1.66-3.46-4.49-3.46h-5.42v7.13H1211.67z"/>
			<path class="st0" d="M1247.58,1211.13h1.86l8.01,17.7h-2.13l-2.06-4.65h-9.57l-2.09,4.65h-2.03L1247.58,1211.13z
				 M1252.48,1222.41l-3.99-8.96l-4.02,8.96H1252.48z"/>
			<path class="st0" d="M1266.48,1211.26h1.86l11.07,14.08v-14.08h1.93v17.58h-1.58l-11.35-14.41v14.41h-1.93V1211.26z"/>
			<path class="st0" d="M1291.88,1211.26h6.1c5.52,0,9.34,3.79,9.34,8.74v0.05c0,4.94-3.82,8.79-9.34,8.79h-6.1V1211.26z
				 M1297.98,1227c4.44,0,7.28-3.01,7.28-6.9v-0.05c0-3.89-2.84-6.95-7.28-6.95h-4.12V1227H1297.98z"/>
			<path class="st0" d="M1330.16,1211.26h12.71v1.81h-10.72v6h9.59v1.81h-9.59v6.15h10.85v1.81h-12.83V1211.26z"/>
			<path class="st0" d="M1359.05,1211.13h1.86l8.01,17.7h-2.13l-2.06-4.65h-9.57l-2.09,4.65h-2.03L1359.05,1211.13z
				 M1363.95,1222.41l-3.99-8.96l-4.02,8.96H1363.95z"/>
			<path class="st0" d="M1376.44,1226.27l1.23-1.46c1.83,1.66,3.59,2.48,6.03,2.48c2.36,0,3.92-1.25,3.92-2.99v-0.05
				c0-1.63-0.88-2.56-4.57-3.34c-4.04-0.88-5.9-2.18-5.9-5.07v-0.05c0-2.76,2.44-4.8,5.77-4.8c2.56,0,4.39,0.73,6.18,2.16
				l-1.16,1.53c-1.63-1.33-3.26-1.91-5.07-1.91c-2.28,0-3.74,1.25-3.74,2.84v0.05c0,1.66,0.9,2.59,4.77,3.42
				c3.92,0.85,5.72,2.28,5.72,4.97v0.05c0,3.01-2.51,4.97-6,4.97C1380.84,1229.09,1378.56,1228.16,1376.44,1226.27z"/>
			<path class="st0" d="M1399.41,1211.26h1.98v17.58h-1.98V1211.26z"/>
			<path class="st0" d="M1412.08,1211.26h12.71v1.81h-10.72v6h9.59v1.81h-9.59v6.15h10.85v1.81h-12.83V1211.26z"/>
			<path class="st0" d="M1434.46,1211.26h7.56c2.16,0,3.89,0.65,4.99,1.76c0.86,0.85,1.36,2.08,1.36,3.46v0.05
				c0,2.91-2.01,4.62-4.77,5.12l5.4,7.18h-2.44l-5.09-6.83h-5.02v6.83h-1.98V1211.26z M1441.85,1220.22c2.63,0,4.52-1.36,4.52-3.62
				v-0.05c0-2.16-1.66-3.46-4.49-3.46h-5.42v7.13H1441.85z"/>
		</g>
	</g>
	<g>
		<path class="st0" d="M873.52,917.26c0-69.78,56.74-126.45,126.45-126.45c13.24,0,26.03,2.01,38.04,5.84
			c4.54,1.43,9.02,3.12,13.31,5.06L934.99,918.04c-3.05,3.05-3.05,7.98,0,11.04c1.49,1.56,3.51,2.27,5.52,2.27
			c1.95,0,3.96-0.71,5.52-2.27l119.77-119.77l11.3-11.29l13.83-13.83c2.99-3.05,2.99-7.98,0-11.04c-3.05-3.05-7.98-3.05-11.04,0
			L1063,790.03c-4.15-2.14-8.37-3.96-12.72-5.65c-15.64-5.97-32.59-9.22-50.31-9.22c-78.29,0-142.03,63.75-142.03,142.1
			c0,45.18,21.23,85.49,54.2,111.46l11.1-11.04C893.05,994.57,873.52,958.16,873.52,917.26z"/>
		<path class="st0" d="M1087.73,805.67l-11.04,11.04c30.25,23.17,49.79,59.59,49.79,100.55c0,69.72-56.73,126.45-126.52,126.45
			c-13.31,0-26.1-2.08-38.17-5.91c-4.54-1.43-8.96-3.12-13.24-5.06l116.46-116.33c3.05-3.05,3.05-7.98,0-11.04
			c-3.05-3.05-7.98-3.05-11.04,0l-119.83,119.77l-11.29,11.23l-5.91,5.91c-3.05,3.05-3.05,7.98,0,10.97
			c1.49,1.56,3.51,2.34,5.52,2.34c1.95,0,3.96-0.78,5.52-2.27l8.89-8.89c4.15,2.08,8.37,3.96,12.72,5.58
			c15.64,6.04,32.65,9.28,50.37,9.28c78.35,0,142.1-63.75,142.1-142.03C1142.06,872.02,1120.77,831.64,1087.73,805.67z"/>
		<path d="M997.47,930.55c-3.09-2.03-7.18-1.62-9.79,1l-11.53,11.53c-7.68,7.69-17.9,11.92-28.77,11.92
			c-10.87,0-21.08-4.23-28.77-11.92c-15.86-15.86-15.86-41.67,0-57.53l72.17-72.17c3.02-3.02,3.32-7.97,0.4-11.08
			c-3.03-3.21-8.08-3.27-11.18-0.17l-72.4,72.4c-10.62,10.63-16.48,24.75-16.48,39.79c0,15.03,5.85,29.15,16.48,39.78
			c10.5,10.5,24.42,16.34,39.24,16.48c15.38,0.14,30.1-6.25,40.97-17.12l10.88-10.88C1002.18,939.07,1001.59,933.26,997.47,930.55
			L997.47,930.55z"/>
		<path d="M1092.39,880.38c-10.49-10.49-24.4-16.33-39.22-16.48c-15.39-0.15-30.12,6.24-41,17.12l-10.88,10.88
			c-3.49,3.49-2.9,9.3,1.22,12.02l0,0c3.09,2.03,7.18,1.62,9.79-1l11.53-11.53c7.68-7.69,17.9-11.92,28.77-11.92
			c10.87,0,21.08,4.23,28.77,11.92c7.68,7.68,11.91,17.9,11.91,28.77c0,10.87-4.23,21.08-11.91,28.76l-72.17,72.17
			c-3.11,3.11-3.28,8.36-0.09,11.39c1.5,1.43,3.44,2.15,5.37,2.15c1.99,0,3.99-0.76,5.51-2.28l72.4-72.4
			C1114.32,938.01,1114.32,902.32,1092.39,880.38z"/>
	</g>
</g>
</svg>
